<svg xmlns="http://www.w3.org/2000/svg" xmlns:ev="http://www.w3.org/2001/xml-events" width="1132" xmlns:xlink="http://www.w3.org/1999/xlink" height="804" viewBox="0 0 1132 804"><defs/><g id="page1" transform="translate(5.5,5.5)"><rect x="0" width="1123" y="0" height="794" fill="none"/><path fill-rule="nonzero" id="shape1" d="M341.0,302.0L341.0,.0L.0,.0L.0,302.0L341.0,302.0z" fill="#ffffff" transform="translate(354.000000,245.850500)"/><g id="group2" transform="translate(370.167100,411.850500)"><path fill-rule="nonzero" id="shape3" d="M14.7,.0L6.3,13.0L.0,.7L14.7,.0z" fill="#ffffff" transform="translate(11.031680,19.611810)" stroke-width="1" stroke="#6c6c6c"/><path fill-rule="nonzero" id="shape4" d="M11.1,.5C11.1,.5,4.8,1.6,2.3,7.6C-0.2,13.7,.0,22.5,.0,22.5C.0,22.5,3.4,26.0,9.7,27.4C17.0,29.1,22.3,29.4,27.1,27.7C32.8,25.7,36.2,21.8,36.1,21.8C36.2,21.8,36.6,13.0,33.8,7.6C31.5,3.2,25.1,.0,25.1,.0L18.8,12.0L11.1,.5z" fill="#ffffff" transform="translate(0.000000,18.141900)" stroke-width="1" stroke="#000000"/><path fill-rule="nonzero" id="shape5" d="M-0.0,11.2C-0.0,5.0,4.4,.0,9.8,.0C15.2,.0,19.6,5.0,19.6,11.2C19.6,17.4,15.2,22.4,9.8,22.4C4.4,22.4,-0.0,17.4,-0.0,11.2z" fill="#ffffff" transform="translate(7.832620,0.000000)" stroke-width="1" stroke="#000000"/><text style="fill:#191919;font-family:微软雅黑;font-size:10.00pt" xml:space="preserve"><tspan x="0.8" y="61.5">用户A</tspan></text></g><g id="group6" transform="translate(463.449100,411.850500)"><path fill-rule="nonzero" id="shape7" d="M14.7,.0L6.3,13.0L.0,.7L14.7,.0z" fill="#ffffff" transform="translate(11.031680,19.611810)" stroke-width="1" stroke="#6c6c6c"/><path fill-rule="nonzero" id="shape8" d="M11.1,.5C11.1,.5,4.8,1.6,2.3,7.6C-0.2,13.7,.0,22.5,.0,22.5C.0,22.5,3.4,26.0,9.7,27.4C17.0,29.1,22.3,29.4,27.1,27.7C32.8,25.7,36.2,21.8,36.1,21.8C36.2,21.8,36.6,13.0,33.8,7.6C31.5,3.2,25.1,.0,25.1,.0L18.8,12.0L11.1,.5z" fill="#ffffff" transform="translate(0.000000,18.141900)" stroke-width="1" stroke="#000000"/><path fill-rule="nonzero" id="shape9" d="M-0.0,11.2C-0.0,5.0,4.4,.0,9.8,.0C15.2,.0,19.6,5.0,19.6,11.2C19.6,17.4,15.2,22.4,9.8,22.4C4.4,22.4,-0.0,17.4,-0.0,11.2z" fill="#ffffff" transform="translate(7.832620,0.000000)" stroke-width="1" stroke="#000000"/><text style="fill:#191919;font-family:微软雅黑;font-size:10.00pt" xml:space="preserve"><tspan x="1.3" y="61.5">用户B</tspan></text></g><g id="group10" transform="translate(556.731100,411.850500)"><path fill-rule="nonzero" id="shape11" d="M14.7,.0L6.3,13.0L.0,.7L14.7,.0z" fill="#ffffff" transform="translate(11.031680,19.611810)" stroke-width="1" stroke="#6c6c6c"/><path fill-rule="nonzero" id="shape12" d="M11.1,.5C11.1,.5,4.8,1.6,2.3,7.6C-0.2,13.7,.0,22.5,.0,22.5C.0,22.5,3.4,26.0,9.7,27.4C17.0,29.1,22.3,29.4,27.1,27.7C32.8,25.7,36.2,21.8,36.1,21.8C36.2,21.8,36.6,13.0,33.8,7.6C31.5,3.2,25.1,.0,25.1,.0L18.8,12.0L11.1,.5z" fill="#ffffff" transform="translate(0.000000,18.141900)" stroke-width="1" stroke="#000000"/><path fill-rule="nonzero" id="shape13" d="M-0.0,11.2C-0.0,5.0,4.4,.0,9.8,.0C15.2,.0,19.6,5.0,19.6,11.2C19.6,17.4,15.2,22.4,9.8,22.4C4.4,22.4,-0.0,17.4,-0.0,11.2z" fill="#ffffff" transform="translate(7.832620,0.000000)" stroke-width="1" stroke="#000000"/><text style="fill:#191919;font-family:微软雅黑;font-size:10.00pt" xml:space="preserve"><tspan x="1.1" y="61.5">用户C</tspan></text></g><g id="group14" transform="translate(650.013100,411.850500)"><path fill-rule="nonzero" id="shape15" d="M14.7,.0L6.3,13.0L.0,.7L14.7,.0z" fill="#ffffff" transform="translate(11.031680,19.611810)" stroke-width="1" stroke="#6c6c6c"/><path fill-rule="nonzero" id="shape16" d="M11.1,.5C11.1,.5,4.8,1.6,2.3,7.6C-0.2,13.7,.0,22.5,.0,22.5C.0,22.5,3.4,26.0,9.7,27.4C17.0,29.1,22.3,29.4,27.1,27.7C32.8,25.7,36.2,21.8,36.1,21.8C36.2,21.8,36.6,13.0,33.8,7.6C31.5,3.2,25.1,.0,25.1,.0L18.8,12.0L11.1,.5z" fill="#ffffff" transform="translate(0.000000,18.141900)" stroke-width="1" stroke="#000000"/><path fill-rule="nonzero" id="shape17" d="M-0.0,11.2C-0.0,5.0,4.4,.0,9.8,.0C15.2,.0,19.6,5.0,19.6,11.2C19.6,17.4,15.2,22.4,9.8,22.4C4.4,22.4,-0.0,17.4,-0.0,11.2z" fill="#ffffff" transform="translate(7.832620,0.000000)" stroke-width="1" stroke="#000000"/><text style="fill:#191919;font-family:微软雅黑;font-size:10.00pt" xml:space="preserve"><tspan x="0.3" y="61.5">用户D</tspan></text></g><g id="shape18" transform="matrix(0.000000,1.000000,-1.000000,0.000000,686.087000,487.350500)"><path d="M.0,.0L9.0,.0C11.5,-0.4,14.0,.5,15.8,2.2C17.5,4.0,18.4,6.5,18.0,9.0L18.0,153.4C17.6,155.9,18.5,158.4,20.2,160.1C22.0,161.9,24.5,162.7,27.0,162.4C24.5,162.0,22.0,162.9,20.2,164.6C18.5,166.4,17.6,168.9,18.0,171.4L18.0,315.7C18.4,318.2,17.5,320.7,15.8,322.5C14.0,324.3,11.5,325.1,9.0,324.7L.0,324.7" fill="none" stroke-width="1" stroke="#000000"/><text transform="matrix(0.00,-1.00,1.00,0.00,-116.9,207.9)" style="fill:#191919;font-family:微软雅黑;font-size:10.00pt" xml:space="preserve"><tspan x="19.5" y="164.9">少量用户</tspan></text></g><g id="group19" transform="translate(430.382000,255.850500)"><g id="shape20"><path fill-rule="nonzero" d="M186.7,112.0L186.7,.0L.0,.0L.0,112.0L186.7,112.0z" fill="#fff4e8" stroke-width="1" stroke="#323232"/><text style="fill:#191919;font-family:微软雅黑;font-size:10.00pt" xml:space="preserve"><tspan x="55.8" y="101.0">Linux服务器</tspan></text></g><g id="shape21" transform="translate(43.333200,19.000000)"><path fill-rule="nonzero" d="M100.0,60.0L100.0,.0L.0,.0L.0,60.0L100.0,60.0z" fill="#fff4e8" stroke-width="1" stroke="#323232"/><text style="fill:#191919;font-family:微软雅黑;font-size:10.00pt" xml:space="preserve"><tspan x="5.3" y="32.5">Web网站/站点</tspan></text></g></g><g id="shape22" transform="translate(388.244000,411.850500)"><path d="M.0,.0L.0,-100.0L33.7,-100.0" fill="none" stroke-width="2" stroke="#191919"/><path stroke-linecap="round" d="M33.7,-104.2L42.1,-100.0L33.7,-95.8L33.7,-104.2" fill="#191919" stroke-width="1" stroke="#191919"/></g><g id="shape23" transform="translate(668.090000,411.850500)"><path d="M.0,.0L.0,-100.0L-41.6,-100.0" fill="none" stroke-width="2" stroke="#191919"/><path stroke-linecap="round" d="M-41.6,-95.8L-50.1,-100.0L-41.6,-104.2L-41.6,-95.8" fill="#191919" stroke-width="1" stroke="#191919"/></g><g id="shape24" transform="translate(481.526000,411.850500)"><path d="M.0,.0L.0,-35.5" fill="none" stroke-width="2" stroke="#191919"/><path stroke-linecap="round" d="M-4.2,-35.5L.0,-44.0L4.2,-35.5L-4.2,-35.5" fill="#191919" stroke-width="1" stroke="#191919"/></g><g id="shape25" transform="translate(574.345020,411.850500)"><path d="M.0,.0L-0.0,-35.5" fill="none" stroke-width="2" stroke="#191919"/><path stroke-linecap="round" d="M-4.2,-35.5L-0.0,-44.0L4.2,-35.5L-4.2,-35.5" fill="#191919" stroke-width="1" stroke="#191919"/></g></g></svg>