<svg xmlns="http://www.w3.org/2000/svg" width="695" xmlns:xlink="http://www.w3.org/1999/xlink" height="856" viewBox="0 0 695 856"><defs/><g transform="translate(-168.83,-233.70)"><path fill-rule="nonzero" id="shape1" d="M695.0,856.0L695.0,.0L.0,.0L.0,856.0L695.0,856.0z" fill="#ffffff" transform="translate(168.833000,233.701000)"/><g id="group2" transform="translate(642.665800,243.701000)"><g id="shape3"><path fill-rule="nonzero" d="M181.0,196.9L181.0,.0L.0,.0L.0,196.9L181.0,196.9z" fill="#ffe8cd" stroke-width="1" stroke="#323232" stroke-dasharray="11,5"/><text style="fill:#191919;font-family:微软雅黑;font-size:10.00pt" xml:space="preserve"><tspan x="39.5" y="16.0">Linux服务器集群</tspan></text></g><g id="shape4" transform="translate(42.713400,35.414500)"><path fill-rule="nonzero" d="M.0,10.0L.0,97.7L.0,97.7C.0,103.3,22.4,107.7,50.0,107.7C77.6,107.7,100.0,103.3,100.0,97.7L100.0,10.0L100.0,10.0C100.0,4.5,77.6,.0,50.0,.0C22.4,.0,.0,4.5,.0,10.0z" fill="#fff4e8"/><path d="M.0,10.0L.0,97.7L.0,97.7C.0,103.3,22.4,107.7,50.0,107.7C77.6,107.7,100.0,103.3,100.0,97.7L100.0,10.0L100.0,10.0C100.0,4.5,77.6,.0,50.0,.0C22.4,.0,.0,4.5,.0,10.0zM100.0,10.0C100.0,15.5,77.6,20.0,50.0,20.0C22.4,20.0,.0,15.5,.0,10.0M100.0,15.0C100.0,20.5,77.6,25.0,50.0,25.0C22.4,25.0,.0,20.5,.0,15.0M100.0,20.0C100.0,25.5,77.6,30.0,50.0,30.0C22.4,30.0,.0,25.5,.0,20.0" fill="none" stroke-width="1" stroke="#323232"/><text style="fill:#191919;font-family:微软雅黑;font-size:10.00pt" xml:space="preserve"><tspan x="29.8" y="61.9">数据库</tspan><tspan x="5.0" y="79.4">(文件系统集群)</tspan></text></g></g><g id="shape5" transform="translate(179.500000,529.701000)"><path fill-rule="nonzero" d="M673.0,208.0L673.0,.0L.0,.0L.0,208.0L673.0,208.0z" fill="#ffe8cd" stroke-width="1" stroke="#323232" stroke-dasharray="11,5"/><text style="fill:#191919;font-family:微软雅黑;font-size:10.00pt" xml:space="preserve"><tspan x="285.5" y="197.0">Linux服务器集群</tspan></text></g><g id="shape6" transform="translate(466.333000,783.701000)"><path fill-rule="nonzero" d="M100.0,60.0L100.0,.0L.0,.0L.0,60.0L100.0,60.0z" fill="#ffffff" stroke-width="1" stroke="#323232"/><text style="fill:#191919;font-family:微软雅黑;font-size:10.00pt" xml:space="preserve"><tspan x="11.0" y="32.5">LVS负载均衡</tspan></text></g><g id="group7" transform="translate(202.666800,563.200000)"><g id="shape8"><path fill-rule="nonzero" d="M186.7,112.0L186.7,.0L.0,.0L.0,112.0L186.7,112.0z" fill="#fff4e8" stroke-width="1" stroke="#323232"/><text style="fill:#191919;font-family:微软雅黑;font-size:10.00pt" xml:space="preserve"><tspan x="51.8" y="101.0">Linux服务器1</tspan></text></g><g id="shape9" transform="translate(43.333200,19.000000)"><path fill-rule="nonzero" d="M100.0,60.0L100.0,.0L.0,.0L.0,60.0L100.0,60.0z" fill="#fff4e8" stroke-width="1" stroke="#323232"/><text style="fill:#191919;font-family:微软雅黑;font-size:10.00pt" xml:space="preserve"><tspan x="5.3" y="32.5">Web网站/站点</tspan></text></g></g><g id="shape10" transform="matrix(0.000000,1.000000,-1.000000,0.000000,780.000000,1022.700000)"><path d="M.0,.0L9.0,.0C11.5,-0.4,14.0,.5,15.8,2.2C17.5,4.0,18.4,6.5,18.0,9.0L18.0,204.0C17.6,206.5,18.5,209.0,20.2,210.8C22.0,212.5,24.5,213.4,27.0,213.0C24.5,212.7,22.0,213.5,20.2,215.3C18.5,217.0,17.6,219.5,18.0,222.0L18.0,417.0C18.4,419.5,17.5,422.0,15.8,423.8C14.0,425.6,11.5,426.4,9.0,426.0L.0,426.0" fill="none" stroke-width="1" stroke="#000000"/><text transform="matrix(0.00,-1.00,1.00,0.00,-167.5,258.5)" style="fill:#191919;font-family:微软雅黑;font-size:10.00pt" xml:space="preserve"><tspan x="-11.8" y="215.5">大量用户(例如10w)</tspan></text></g><g id="group11" transform="translate(353.881980,950.700000)"><path fill-rule="nonzero" id="shape12" d="M14.7,.0L6.3,13.0L.0,.7L14.7,.0z" fill="#ffffff" transform="translate(11.031680,19.611810)" stroke-width="1" stroke="#6c6c6c"/><path fill-rule="nonzero" id="shape13" d="M11.1,.5C11.1,.5,4.8,1.6,2.3,7.6C-0.2,13.7,.0,22.5,.0,22.5C.0,22.5,3.4,26.0,9.7,27.4C17.0,29.1,22.3,29.4,27.1,27.7C32.8,25.7,36.2,21.8,36.1,21.8C36.2,21.8,36.6,13.0,33.8,7.6C31.5,3.2,25.1,.0,25.1,.0L18.8,12.0L11.1,.5z" fill="#ffffff" transform="translate(0.000000,18.141900)" stroke-width="1" stroke="#000000"/><path fill-rule="nonzero" id="shape14" d="M-0.0,11.2C-0.0,5.0,4.4,.0,9.8,.0C15.2,.0,19.6,5.0,19.6,11.2C19.6,17.4,15.2,22.4,9.8,22.4C4.4,22.4,-0.0,17.4,-0.0,11.2z" fill="#ffffff" transform="translate(7.832620,0.000000)" stroke-width="1" stroke="#000000"/><text style="fill:#191919;font-family:微软雅黑;font-size:10.00pt" xml:space="preserve"><tspan x="0.8" y="61.5">用户A</tspan></text></g><g id="group15" transform="translate(447.163980,950.700000)"><path fill-rule="nonzero" id="shape16" d="M14.7,.0L6.3,13.0L.0,.7L14.7,.0z" fill="#ffffff" transform="translate(11.031680,19.611810)" stroke-width="1" stroke="#6c6c6c"/><path fill-rule="nonzero" id="shape17" d="M11.1,.5C11.1,.5,4.8,1.6,2.3,7.6C-0.2,13.7,.0,22.5,.0,22.5C.0,22.5,3.4,26.0,9.7,27.4C17.0,29.1,22.3,29.4,27.1,27.7C32.8,25.7,36.2,21.8,36.1,21.8C36.2,21.8,36.6,13.0,33.8,7.6C31.5,3.2,25.1,.0,25.1,.0L18.8,12.0L11.1,.5z" fill="#ffffff" transform="translate(0.000000,18.141900)" stroke-width="1" stroke="#000000"/><path fill-rule="nonzero" id="shape18" d="M-0.0,11.2C-0.0,5.0,4.4,.0,9.8,.0C15.2,.0,19.6,5.0,19.6,11.2C19.6,17.4,15.2,22.4,9.8,22.4C4.4,22.4,-0.0,17.4,-0.0,11.2z" fill="#ffffff" transform="translate(7.832620,0.000000)" stroke-width="1" stroke="#000000"/><text style="fill:#191919;font-family:微软雅黑;font-size:10.00pt" xml:space="preserve"><tspan x="1.3" y="61.5">用户B</tspan></text></g><g id="group19" transform="translate(540.445980,950.700000)"><path fill-rule="nonzero" id="shape20" d="M14.7,.0L6.3,13.0L.0,.7L14.7,.0z" fill="#ffffff" transform="translate(11.031680,19.611810)" stroke-width="1" stroke="#6c6c6c"/><path fill-rule="nonzero" id="shape21" d="M11.1,.5C11.1,.5,4.8,1.6,2.3,7.6C-0.2,13.7,.0,22.5,.0,22.5C.0,22.5,3.4,26.0,9.7,27.4C17.0,29.1,22.3,29.4,27.1,27.7C32.8,25.7,36.2,21.8,36.1,21.8C36.2,21.8,36.6,13.0,33.8,7.6C31.5,3.2,25.1,.0,25.1,.0L18.8,12.0L11.1,.5z" fill="#ffffff" transform="translate(0.000000,18.141900)" stroke-width="1" stroke="#000000"/><path fill-rule="nonzero" id="shape22" d="M-0.0,11.2C-0.0,5.0,4.4,.0,9.8,.0C15.2,.0,19.6,5.0,19.6,11.2C19.6,17.4,15.2,22.4,9.8,22.4C4.4,22.4,-0.0,17.4,-0.0,11.2z" fill="#ffffff" transform="translate(7.832620,0.000000)" stroke-width="1" stroke="#000000"/><text style="fill:#191919;font-family:微软雅黑;font-size:10.00pt" xml:space="preserve"><tspan x="1.1" y="61.5">用户C</tspan></text></g><g id="group23" transform="translate(633.727980,950.700000)"><path fill-rule="nonzero" id="shape24" d="M14.7,.0L6.3,13.0L.0,.7L14.7,.0z" fill="#ffffff" transform="translate(11.031680,19.611810)" stroke-width="1" stroke="#6c6c6c"/><path fill-rule="nonzero" id="shape25" d="M11.1,.5C11.1,.5,4.8,1.6,2.3,7.6C-0.2,13.7,.0,22.5,.0,22.5C.0,22.5,3.4,26.0,9.7,27.4C17.0,29.1,22.3,29.4,27.1,27.7C32.8,25.7,36.2,21.8,36.1,21.8C36.2,21.8,36.6,13.0,33.8,7.6C31.5,3.2,25.1,.0,25.1,.0L18.8,12.0L11.1,.5z" fill="#ffffff" transform="translate(0.000000,18.141900)" stroke-width="1" stroke="#000000"/><path fill-rule="nonzero" id="shape26" d="M-0.0,11.2C-0.0,5.0,4.4,.0,9.8,.0C15.2,.0,19.6,5.0,19.6,11.2C19.6,17.4,15.2,22.4,9.8,22.4C4.4,22.4,-0.0,17.4,-0.0,11.2z" fill="#ffffff" transform="translate(7.832620,0.000000)" stroke-width="1" stroke="#000000"/><text style="fill:#191919;font-family:微软雅黑;font-size:10.00pt" xml:space="preserve"><tspan x="0.3" y="61.5">用户D</tspan></text></g><g id="group27" transform="translate(422.999800,599.700000)"><g id="shape28"><path fill-rule="nonzero" d="M186.7,112.0L186.7,.0L.0,.0L.0,112.0L186.7,112.0z" fill="#fff4e8" stroke-width="1" stroke="#323232"/><text style="fill:#191919;font-family:微软雅黑;font-size:10.00pt" xml:space="preserve"><tspan x="51.8" y="101.0">Linux服务器2</tspan></text></g><g id="shape29" transform="translate(43.333200,19.000000)"><path fill-rule="nonzero" d="M100.0,60.0L100.0,.0L.0,.0L.0,60.0L100.0,60.0z" fill="#fff4e8" stroke-width="1" stroke="#323232"/><text style="fill:#191919;font-family:微软雅黑;font-size:10.00pt" xml:space="preserve"><tspan x="5.3" y="32.5">Web网站/站点</tspan></text></g></g><g id="group30" transform="translate(643.332800,563.200000)"><g id="shape31"><path fill-rule="nonzero" d="M186.7,112.0L186.7,.0L.0,.0L.0,112.0L186.7,112.0z" fill="#fff4e8" stroke-width="1" stroke="#323232"/><text style="fill:#191919;font-family:微软雅黑;font-size:10.00pt" xml:space="preserve"><tspan x="51.8" y="101.0">Linux服务器3</tspan></text></g><g id="shape32" transform="translate(43.333200,19.000000)"><path fill-rule="nonzero" d="M100.0,60.0L100.0,.0L.0,.0L.0,60.0L100.0,60.0z" fill="#fff4e8" stroke-width="1" stroke="#323232"/><text style="fill:#191919;font-family:微软雅黑;font-size:10.00pt" xml:space="preserve"><tspan x="5.3" y="32.5">Web网站/站点</tspan></text></g></g><g id="shape33" transform="translate(663.000000,860.200500)"><path fill-rule="nonzero" d="M112.0,33.0L112.0,.0L.0,.0L.0,33.0L112.0,33.0z" fill="#f5cfcf"/><path d="M112.0,33.0L112.0,.0L.0,.0L.0,33.0L112.0,33.0zM15.0,33.0L15.0,.0L15.0,33.0zM97.0,33.0L97.0,.0L97.0,33.0zM15.0,.0L.0,33.0L15.0,.0zM.0,.0L15.0,33.0L.0,.0z" fill="none" stroke-width="1" stroke="#323232"/><text style="fill:#191919;font-family:微软雅黑;font-size:10.00pt" xml:space="preserve"><tspan x="29.0" y="19.0">网络优化</tspan></text></g><g id="shape34" transform="translate(742.333000,399.842300)"><path fill-rule="nonzero" d="M102.0,29.8L102.0,.0L.0,.0L.0,29.8L102.0,29.8z" fill="#f5cfcf"/><path d="M102.0,29.8L102.0,.0L.0,.0L.0,29.8L102.0,29.8zM15.0,29.8L15.0,.0L15.0,29.8zM87.0,29.8L87.0,.0L87.0,29.8zM15.0,.0L.0,29.8L15.0,.0zM.0,.0L15.0,29.8L.0,.0z" fill="none" stroke-width="1" stroke="#323232"/><text style="fill:#191919;font-family:微软雅黑;font-size:10.00pt" xml:space="preserve"><tspan x="30.0" y="17.4">磁盘IO</tspan></text></g><g id="shape35" transform="translate(188.333000,243.701000)"><path fill-rule="nonzero" d="M414.0,196.9L414.0,.0L.0,.0L.0,196.9L414.0,196.9z" fill="#ffe8cd" stroke-width="1" stroke="#323232" stroke-dasharray="11,5"/><text style="fill:#191919;font-family:微软雅黑;font-size:10.00pt" xml:space="preserve"><tspan x="156.0" y="16.0">Linux服务器集群</tspan></text></g><g id="shape36" transform="translate(206.813000,275.115500)"><path fill-rule="nonzero" d="M.0,10.0L.0,95.0L.0,95.0C.0,100.5,22.4,105.0,50.0,105.0C77.6,105.0,100.0,100.5,100.0,95.0L100.0,10.0L100.0,10.0C100.0,4.5,77.6,.0,50.0,.0C22.4,.0,.0,4.5,.0,10.0z" fill="#fff4e8"/><path d="M.0,10.0L.0,95.0L.0,95.0C.0,100.5,22.4,105.0,50.0,105.0C77.6,105.0,100.0,100.5,100.0,95.0L100.0,10.0L100.0,10.0C100.0,4.5,77.6,.0,50.0,.0C22.4,.0,.0,4.5,.0,10.0zM100.0,10.0C100.0,15.5,77.6,20.0,50.0,20.0C22.4,20.0,.0,15.5,.0,10.0M100.0,15.0C100.0,20.5,77.6,25.0,50.0,25.0C22.4,25.0,.0,20.5,.0,15.0M100.0,20.0C100.0,25.5,77.6,30.0,50.0,30.0C22.4,30.0,.0,25.5,.0,20.0" fill="none" stroke-width="1" stroke="#323232"/><text style="fill:#191919;font-family:微软雅黑;font-size:10.00pt" xml:space="preserve"><tspan x="20.0" y="51.0">数据库-写</tspan><tspan x="13.0" y="68.5">(例如mysql)</tspan><tspan x="9.5" y="86.0">用于读写分离</tspan></text></g><g id="shape37" transform="translate(473.333000,275.115500)"><path fill-rule="nonzero" d="M.0,10.0L.0,95.0L.0,95.0C.0,100.5,22.4,105.0,50.0,105.0C77.6,105.0,100.0,100.5,100.0,95.0L100.0,10.0L100.0,10.0C100.0,4.5,77.6,.0,50.0,.0C22.4,.0,.0,4.5,.0,10.0z" fill="#fff4e8"/><path d="M.0,10.0L.0,95.0L.0,95.0C.0,100.5,22.4,105.0,50.0,105.0C77.6,105.0,100.0,100.5,100.0,95.0L100.0,10.0L100.0,10.0C100.0,4.5,77.6,.0,50.0,.0C22.4,.0,.0,4.5,.0,10.0zM100.0,10.0C100.0,15.5,77.6,20.0,50.0,20.0C22.4,20.0,.0,15.5,.0,10.0M100.0,15.0C100.0,20.5,77.6,25.0,50.0,25.0C22.4,25.0,.0,20.5,.0,15.0M100.0,20.0C100.0,25.5,77.6,30.0,50.0,30.0C22.4,30.0,.0,25.5,.0,20.0" fill="none" stroke-width="1" stroke="#323232"/><text style="fill:#191919;font-family:微软雅黑;font-size:10.00pt" xml:space="preserve"><tspan x="20.0" y="51.0">数据库-读</tspan><tspan x="13.0" y="68.5">(例如mysql)</tspan><tspan x="9.5" y="86.0">用于读写分离</tspan></text></g><g id="shape38" transform="translate(306.813000,327.615500)"><path d="M.0,.0L158.0,.0" fill="none" stroke-width="2" stroke="#ffce80"/><path stroke-linecap="round" d="M158.0,-4.2L166.5,.0L158.0,4.2L158.0,-4.2" fill="#ffce80" stroke-width="1" stroke="#ffce80"/><rect x="49.5" width="81.0" y="-11.5" height="17.5" fill="#ffe8cd"/><text style="fill:#ffce80;font-family:微软雅黑;font-size:10.00pt" xml:space="preserve"><tspan x="49.5" y="2.5" style="fill:#191919">文件信息交换</tspan></text></g><g id="shape39" transform="translate(238.083000,464.201000)"><path fill-rule="nonzero" d="M115.8,33.0L115.8,.0L.0,.0L.0,33.0L115.8,33.0z" fill="#ffffff"/><text style="fill:#ffce80;font-family:微软雅黑;font-size:10.00pt" xml:space="preserve"><tspan x="10.7" y="19.0">服务操作数据库</tspan></text></g><g id="shape40" transform="translate(296.000000,582.200000)"><path d="M.0,.0L.0,-76.5" fill="none" stroke-width="2" stroke="#ffce80"/><path stroke-linecap="round" d="M-4.2,-76.5L.0,-85.0L4.2,-76.5L-4.2,-76.5" fill="#ffce80" stroke-width="1" stroke="#ffce80"/></g><g id="shape41" transform="translate(509.333000,618.700000)"><path d="M.0,.0L.0,-138.0L-146.9,-138.0" fill="none" stroke-width="2" stroke="#ffce80"/><path stroke-linecap="round" d="M-146.9,-133.8L-155.4,-138.0L-146.9,-142.2L-146.9,-133.8" fill="#ffce80" stroke-width="1" stroke="#ffce80"/></g><g id="shape42" transform="translate(678.748800,464.201000)"><path fill-rule="nonzero" d="M115.8,33.0L115.8,.0L.0,.0L.0,33.0L115.8,33.0z" fill="#ffffff"/><text style="fill:#ca3d3e;font-family:微软雅黑;font-size:10.00pt" xml:space="preserve"><tspan x="3.9" y="19.0">服务访问文件系统</tspan></text></g><g id="shape43" transform="translate(736.666000,582.200000)"><path d="M.0,.0L-0.0,-76.5" fill="none" stroke-width="2" stroke="#ca3d3e"/><path stroke-linecap="round" d="M-4.2,-76.5L-0.0,-85.0L4.2,-76.5L-4.2,-76.5" fill="#ca3d3e" stroke-width="1" stroke="#ca3d3e"/></g><g id="shape44" transform="translate(523.633000,618.700000)"><path d="M.0,.0L.0,-138.0L146.6,-138.0" fill="none" stroke-width="2" stroke="#ca3d3e"/><path stroke-linecap="round" d="M146.6,-142.2L155.1,-138.0L146.6,-133.8L146.6,-142.2" fill="#ca3d3e" stroke-width="1" stroke="#ca3d3e"/></g><g id="shape45" transform="translate(686.666000,612.200000)"><path d="M.0,.0L-324.9,-128.4" fill="none" stroke-width="2" stroke="#ffce80"/><path stroke-linecap="round" d="M-326.4,-124.4L-332.7,-131.5L-323.3,-132.3L-326.4,-124.4" fill="#ffce80" stroke-width="1" stroke="#ffce80"/></g><g id="shape46" transform="translate(346.000000,612.200000)"><path d="M.0,.0L324.9,-128.4" fill="none" stroke-width="2" stroke="#ca3d3e"/><path stroke-linecap="round" d="M323.3,-132.3L332.7,-131.5L326.4,-124.4L323.3,-132.3" fill="#ca3d3e" stroke-width="1" stroke="#ca3d3e"/></g><g id="shape47" transform="translate(736.665800,464.201000)"><path d="M.0,.0L.0,-72.2L-1.3,-72.2" fill="none" stroke-width="2" stroke="#ca3d3e"/><path stroke-linecap="round" d="M-5.5,-68.9L-1.3,-77.4L3.0,-68.9L-5.5,-68.9" fill="#ca3d3e" stroke-width="1" stroke="#ca3d3e"/></g><g id="shape48" transform="translate(371.958880,950.700000)"><path d="M.0,.0L1.0,.0L1.0,-137.0L85.9,-137.0" fill="none" stroke-width="2" stroke="#191919"/><path stroke-linecap="round" d="M85.9,-141.2L94.4,-137.0L85.9,-132.8L85.9,-141.2" fill="#191919" stroke-width="1" stroke="#191919"/><rect x="-25.0" width="54.0" y="-41.4" height="17.5" fill="#ffffff"/><text style="fill:#191919;font-family:微软雅黑;font-size:10.00pt" xml:space="preserve"><tspan x="-25.0" y="-27.4">网络连接</tspan></text></g><g id="shape49" transform="translate(651.804880,950.700000)"><path d="M.0,.0L.0,-137.0L-77.0,-137.0" fill="none" stroke-width="2" stroke="#000000"/><path stroke-linecap="round" d="M-77.0,-132.8L-85.5,-137.0L-77.0,-141.2L-77.0,-132.8" fill="#000000" stroke-width="1" stroke="#000000"/><rect x="-26.0" width="54.0" y="-42.7" height="17.5" fill="#ffffff"/><text style="fill:#191919;font-family:微软雅黑;font-size:10.00pt" xml:space="preserve"><tspan x="-26.0" y="-28.7">网络连接</tspan></text></g><g id="shape50" transform="translate(465.240880,950.700000)"><path d="M.0,.0L.0,-79.7L25.8,-79.7L25.8,-98.5" fill="none" stroke-width="2" stroke="#191919"/><path stroke-linecap="round" d="M21.5,-98.5L25.8,-107.0L30.0,-98.5L21.5,-98.5" fill="#191919" stroke-width="1" stroke="#191919"/><rect x="-26.0" width="54.0" y="-41.8" height="17.5" fill="#ffffff"/><text style="fill:#191919;font-family:微软雅黑;font-size:10.00pt" xml:space="preserve"><tspan x="-26.0" y="-27.8">网络连接</tspan></text></g><g id="shape51" transform="translate(558.522880,950.700000)"><path d="M.0,.0L.0,-79.7L-19.5,-79.7L-19.5,-98.5" fill="none" stroke-width="2" stroke="#191919"/><path stroke-linecap="round" d="M-23.7,-98.5L-19.5,-107.0L-15.2,-98.5L-23.7,-98.5" fill="#191919" stroke-width="1" stroke="#191919"/><rect x="-26.0" width="54.0" y="-43.7" height="17.5" fill="#ffffff"/><text style="fill:#191919;font-family:微软雅黑;font-size:10.00pt" xml:space="preserve"><tspan x="-26.0" y="-29.7">网络连接</tspan></text></g><g id="shape52" transform="translate(331.833000,360.616500)"><path fill-rule="nonzero" d="M127.0,33.0L127.0,.0L.0,.0L.0,33.0L127.0,33.0z" fill="#f5cfcf"/><path d="M127.0,33.0L127.0,.0L.0,.0L.0,33.0L127.0,33.0zM15.0,33.0L15.0,.0L15.0,33.0zM112.0,33.0L112.0,.0L112.0,33.0zM15.0,.0L.0,33.0L15.0,.0zM.0,.0L15.0,33.0L.0,.0z" fill="none" stroke-width="1" stroke="#323232"/><text style="fill:#191919;font-family:微软雅黑;font-size:10.00pt" xml:space="preserve"><tspan x="29.8" y="19.0">文件连接数</tspan></text></g><g id="shape53" transform="translate(296.000000,464.201000)"><path d="M.0,.0L.0,-74.5L227.3,-74.5L227.3,-75.6" fill="none" stroke-width="2" stroke="#ffce80"/><path stroke-linecap="round" d="M223.1,-75.6L227.3,-84.1L231.6,-75.6L223.1,-75.6" fill="#ffce80" stroke-width="1" stroke="#ffce80"/></g><g id="shape54" transform="translate(296.000000,464.201000)"><path d="M.0,.0L.0,-74.5L-39.2,-74.5L-39.2,-75.6" fill="none" stroke-width="2" stroke="#ffce80"/><path stroke-linecap="round" d="M-43.4,-75.6L-39.2,-84.1L-34.9,-75.6L-43.4,-75.6" fill="#ffce80" stroke-width="1" stroke="#ffce80"/></g><g id="shape55" transform="translate(516.333000,783.701000)"><path d="M.0,.0L.0,-2.7L-0.3,-28.7L-0.3,-37.5" fill="none" stroke-width="2" stroke="#191919"/><path stroke-linecap="round" d="M-4.6,-37.5L-0.3,-46.0L3.9,-37.5L-4.6,-37.5" fill="#191919" stroke-width="1" stroke="#191919"/></g><g id="shape56" transform="translate(669.881780,904.200000)"><text style="fill:#191919;font-family:微软雅黑;font-size:72.00pt" xml:space="preserve"><tspan x="25.5" y="105.5">···</tspan></text></g></g></svg>